<svg id="svg" version="1.1" xmlns="http://www.w3.org/2000/svg" xmlns:xlink="http://www.w3.org/1999/xlink" width="400" height="400" viewBox="0, 0, 400,400"><g id="svgg"><path id="path0" d="M240.833 132.772 C 239.935 133.339,239.663 136.531,239.367 150.000 C 239.077 163.162,238.846 164.751,236.944 166.701 C 236.675 166.977,236.068 167.977,235.595 168.925 C 234.741 170.635,233.821 171.302,229.000 173.703 C 228.120 174.141,227.085 174.659,226.700 174.853 C 225.655 175.381,175.436 175.355,174.449 174.826 C 174.011 174.592,173.326 174.396,172.926 174.391 C 172.527 174.386,171.750 174.030,171.200 173.600 C 170.650 173.170,169.885 172.814,169.500 172.809 C 169.115 172.804,168.800 172.620,168.800 172.400 C 168.800 172.180,168.575 171.996,168.300 171.990 C 167.141 171.967,164.000 169.195,164.000 168.196 C 164.000 167.648,163.865 167.199,163.700 167.197 C 163.341 167.193,162.400 165.256,162.400 164.520 C 162.400 164.234,162.220 164.000,162.000 164.000 C 161.780 164.000,161.600 163.676,161.600 163.280 C 161.600 162.884,161.434 162.389,161.231 162.180 C 161.028 161.971,160.810 157.285,160.748 151.766 C 160.612 139.779,160.510 138.383,159.797 138.657 C 159.508 138.767,159.166 138.523,159.036 138.114 C 158.749 137.208,156.596 136.933,156.122 137.741 C 155.691 138.477,153.445 139.600,152.404 139.600 C 151.634 139.600,149.800 140.677,148.473 141.909 C 148.171 142.189,147.356 142.707,146.662 143.059 C 143.888 144.468,140.526 146.621,139.200 147.837 C 138.430 148.544,137.170 149.545,136.400 150.062 C 134.691 151.209,131.776 154.345,130.057 156.885 C 129.356 157.922,128.540 158.912,128.243 159.085 C 127.483 159.530,126.505 163.870,126.055 168.800 C 125.844 171.110,125.497 173.450,125.285 174.000 C 125.073 174.550,124.974 175.810,125.065 176.800 C 125.157 177.790,125.187 179.770,125.133 181.200 C 125.078 182.630,125.087 185.510,125.151 187.600 C 125.341 193.750,125.344 194.426,125.198 198.200 C 125.110 200.464,125.234 202.125,125.530 202.676 C 125.790 203.157,125.847 203.648,125.657 203.765 C 125.090 204.115,124.823 209.300,125.326 210.198 C 125.754 210.962,125.812 213.060,126.111 238.600 C 126.188 245.196,126.292 246.302,126.900 246.975 C 127.285 247.402,127.600 248.170,127.600 248.681 C 127.600 250.202,129.890 253.857,131.176 254.390 C 132.293 254.853,132.699 255.544,133.060 257.600 C 133.257 258.720,134.210 259.600,135.227 259.600 C 135.993 259.600,136.617 260.258,137.553 262.047 C 138.025 262.950,138.899 263.590,140.785 264.411 C 142.206 265.031,143.826 266.080,144.385 266.743 C 145.005 267.480,146.069 268.122,147.121 268.395 C 148.067 268.641,148.941 269.102,149.063 269.421 C 149.186 269.739,149.618 270.000,150.025 270.000 C 150.431 270.000,151.206 270.443,151.747 270.984 C 153.103 272.340,154.636 272.672,155.583 271.815 C 156.801 270.713,158.177 271.156,158.325 272.700 C 158.480 274.307,159.200 274.429,159.200 272.849 C 159.200 272.216,159.478 271.468,159.817 271.186 C 160.226 270.847,160.417 270.054,160.383 268.837 C 160.021 255.691,161.025 235.200,162.031 235.200 C 162.234 235.200,162.400 234.840,162.400 234.400 C 162.400 233.960,162.580 233.600,162.800 233.600 C 163.020 233.600,163.200 233.395,163.200 233.144 C 163.200 231.385,168.769 226.639,169.965 227.379 C 170.207 227.528,170.400 227.371,170.400 227.024 C 170.400 226.681,170.648 226.400,170.951 226.400 C 171.254 226.400,171.724 226.132,171.996 225.804 C 172.268 225.477,172.658 225.312,172.863 225.439 C 173.068 225.565,173.482 225.464,173.784 225.213 C 174.470 224.644,225.223 224.595,226.301 225.162 C 228.600 226.373,231.853 227.763,232.163 227.669 C 232.659 227.517,236.000 230.839,236.000 231.483 C 236.000 231.767,236.180 232.000,236.400 232.000 C 236.620 232.000,236.800 232.345,236.800 232.767 C 236.800 233.188,236.943 233.593,237.119 233.667 C 238.950 234.433,239.152 236.615,239.279 257.050 L 239.400 276.600 240.600 276.462 C 241.260 276.387,243.240 275.505,245.000 274.503 C 246.760 273.500,250.810 271.205,254.000 269.401 C 260.345 265.814,261.409 265.179,264.035 263.414 C 265.006 262.762,267.633 261.285,269.874 260.132 C 274.341 257.834,274.483 257.732,278.251 254.068 C 279.695 252.664,281.092 251.626,281.385 251.739 C 282.098 252.012,283.759 250.192,283.475 249.450 C 283.143 248.586,283.951 246.000,284.553 246.000 C 285.162 246.000,285.229 241.834,285.331 197.800 C 285.402 167.097,285.368 166.400,283.804 166.400 C 283.461 166.400,283.132 165.805,282.973 164.900 C 282.829 164.075,282.460 163.001,282.155 162.514 C 281.850 162.027,281.600 161.380,281.600 161.076 C 281.600 160.773,281.136 160.001,280.568 159.362 C 280.001 158.723,279.095 157.519,278.555 156.687 C 278.015 155.854,276.866 154.684,276.002 154.087 C 275.137 153.489,274.424 152.710,274.415 152.357 C 274.407 152.003,273.365 151.035,272.100 150.206 C 270.835 149.377,268.900 148.030,267.800 147.213 C 266.700 146.396,265.215 145.497,264.500 145.215 C 263.785 144.934,263.200 144.567,263.200 144.401 C 263.200 144.236,262.663 143.993,262.007 143.861 C 261.351 143.730,260.419 143.168,259.935 142.611 C 259.336 141.922,258.647 141.600,257.771 141.600 C 256.743 141.600,256.438 141.405,256.242 140.624 C 256.041 139.825,255.663 139.598,254.145 139.371 C 253.053 139.207,250.962 138.316,249.047 137.198 C 247.261 136.155,245.168 135.099,244.395 134.852 C 243.622 134.604,242.812 134.007,242.595 133.526 C 242.130 132.498,241.615 132.277,240.833 132.772 " stroke="none" fill="#e8710c" fill-rule="evenodd"></path><path id="path1" d="M198.400 75.800 C 198.400 76.286,197.759 76.400,195.027 76.400 C 191.956 76.400,191.630 76.475,191.388 77.237 C 191.202 77.825,190.890 78.012,190.337 77.868 C 189.872 77.746,189.462 77.894,189.333 78.231 C 189.213 78.544,188.684 78.800,188.157 78.800 C 187.631 78.800,187.200 78.980,187.200 79.200 C 187.200 79.420,187.009 79.600,186.776 79.600 C 186.543 79.600,186.464 79.420,186.600 79.200 C 186.963 78.612,186.430 78.713,185.790 79.352 C 185.487 79.656,185.350 80.016,185.486 80.152 C 185.622 80.289,185.433 80.400,185.067 80.400 C 184.700 80.400,184.400 80.580,184.400 80.800 C 184.400 81.020,184.209 81.200,183.976 81.200 C 183.743 81.200,183.667 80.975,183.807 80.700 C 183.947 80.425,183.703 80.605,183.266 81.100 C 182.829 81.595,182.090 82.000,181.623 82.000 C 181.157 82.000,180.672 82.269,180.546 82.598 C 180.419 82.926,180.177 83.109,180.007 83.004 C 179.494 82.687,177.200 84.016,177.200 84.629 C 177.200 84.943,177.009 85.200,176.776 85.200 C 176.543 85.200,176.481 84.992,176.638 84.738 C 176.815 84.452,176.748 84.385,176.462 84.562 C 176.208 84.719,176.000 85.107,176.000 85.424 C 176.000 85.741,175.809 86.000,175.576 86.000 C 175.343 86.000,175.264 85.820,175.400 85.600 C 175.536 85.380,175.469 85.200,175.251 85.200 C 175.032 85.200,174.740 85.560,174.600 86.000 C 174.460 86.440,173.998 86.823,173.573 86.850 C 171.844 86.962,170.800 87.561,170.800 88.443 C 170.800 88.933,170.518 89.200,170.000 89.200 C 169.560 89.200,169.200 89.380,169.200 89.600 C 169.200 89.820,169.009 90.000,168.776 90.000 C 168.543 90.000,168.482 89.775,168.641 89.500 C 168.935 88.990,166.827 90.699,166.339 91.367 C 166.191 91.568,165.515 91.733,164.835 91.733 C 164.101 91.733,163.600 91.940,163.600 92.243 C 163.600 92.523,163.392 92.881,163.138 93.038 C 162.825 93.232,162.785 93.143,163.015 92.762 C 163.303 92.284,163.252 92.282,162.681 92.745 C 162.311 93.045,162.107 93.450,162.228 93.645 C 162.349 93.840,161.807 94.000,161.024 94.000 C 160.241 94.000,159.600 94.180,159.600 94.400 C 159.600 94.620,159.280 94.800,158.888 94.800 C 158.497 94.800,157.917 95.160,157.600 95.600 C 157.283 96.040,156.783 96.400,156.488 96.400 C 156.194 96.400,156.064 96.580,156.200 96.800 C 156.341 97.028,155.996 97.200,155.400 97.200 C 154.669 97.200,154.443 97.351,154.653 97.700 C 154.846 98.021,154.705 97.998,154.257 97.634 C 153.638 97.132,153.534 97.166,153.333 97.934 C 153.209 98.410,152.937 98.800,152.730 98.800 C 152.522 98.800,152.469 98.575,152.611 98.300 C 152.753 98.025,152.478 98.250,152.000 98.800 C 151.522 99.350,151.247 99.575,151.389 99.300 C 151.820 98.465,151.261 98.735,149.937 100.000 C 149.246 100.660,148.438 101.200,148.141 101.200 C 147.843 101.200,147.600 101.380,147.600 101.600 C 147.600 101.820,147.268 102.000,146.861 102.000 C 145.723 102.000,143.600 103.191,143.600 103.829 C 143.600 104.163,143.207 104.400,142.654 104.400 C 142.134 104.400,141.250 104.760,140.691 105.200 C 140.131 105.640,139.477 106.000,139.237 106.000 C 138.997 106.000,138.800 106.180,138.800 106.400 C 138.800 106.620,138.333 106.800,137.763 106.800 C 137.085 106.800,136.657 107.060,136.529 107.550 C 136.404 108.029,135.974 108.300,135.339 108.300 C 134.779 108.300,134.085 108.671,133.750 109.150 C 133.409 109.637,132.721 110.000,132.140 110.000 C 131.510 110.000,131.056 110.265,130.942 110.700 C 130.767 111.371,129.112 112.400,128.209 112.400 C 127.971 112.400,127.517 112.760,127.200 113.200 C 126.883 113.640,126.224 114.000,125.735 114.000 C 125.247 114.000,124.736 114.180,124.600 114.400 C 124.464 114.620,124.081 114.800,123.748 114.800 C 123.021 114.800,121.936 115.803,122.286 116.152 C 122.422 116.289,122.068 116.400,121.500 116.400 C 120.932 116.400,120.407 116.575,120.333 116.788 C 120.260 117.002,119.800 117.237,119.310 117.311 C 118.821 117.385,118.281 117.600,118.110 117.787 C 117.939 117.975,118.069 117.975,118.400 117.787 C 118.902 117.502,118.917 117.549,118.493 118.073 C 118.213 118.418,117.534 118.700,116.984 118.700 C 116.384 118.700,115.503 119.201,114.788 119.950 C 114.131 120.638,113.370 121.197,113.097 121.194 C 112.770 121.190,112.806 121.055,113.200 120.800 C 113.577 120.556,113.619 120.410,113.314 120.406 C 113.047 120.403,112.635 120.760,112.400 121.200 C 112.165 121.640,111.708 122.000,111.386 122.000 C 111.064 122.000,110.800 122.180,110.800 122.400 C 110.800 122.620,110.564 122.800,110.275 122.800 C 109.987 122.800,109.364 123.160,108.892 123.600 C 108.420 124.040,107.801 124.397,107.517 124.394 C 107.150 124.390,107.174 124.275,107.600 124.000 C 107.930 123.787,107.997 123.609,107.749 123.606 C 107.109 123.597,106.349 124.610,106.703 125.001 C 106.867 125.181,106.774 125.198,106.497 125.039 C 106.203 124.870,105.895 125.009,105.754 125.375 C 105.611 125.749,105.034 126.000,104.320 126.000 C 103.462 126.000,103.066 126.225,102.916 126.800 C 102.801 127.240,102.447 127.600,102.130 127.600 C 101.812 127.600,101.672 127.407,101.818 127.170 C 101.964 126.934,101.705 126.978,101.242 127.267 C 100.779 127.556,100.400 127.929,100.400 128.096 C 100.400 128.263,100.113 128.400,99.763 128.400 C 99.412 128.400,99.033 128.753,98.920 129.185 C 98.807 129.617,98.194 130.201,97.557 130.483 C 96.921 130.765,96.400 131.110,96.400 131.251 C 96.400 131.392,96.040 131.601,95.600 131.716 C 95.160 131.831,94.803 132.167,94.806 132.463 C 94.811 132.877,94.897 132.865,95.184 132.412 C 95.389 132.088,95.667 131.934,95.802 132.069 C 95.938 132.204,95.633 132.739,95.124 133.258 C 94.616 133.776,93.946 134.692,93.636 135.293 C 93.326 135.895,92.741 136.742,92.336 137.177 C 91.931 137.611,91.600 138.255,91.600 138.607 C 91.600 138.959,91.420 139.136,91.200 139.000 C 90.973 138.860,90.800 139.196,90.800 139.776 C 90.800 140.339,90.590 140.800,90.333 140.800 C 90.077 140.800,89.987 140.921,90.135 141.068 C 90.282 141.216,90.128 141.756,89.792 142.268 C 89.456 142.781,89.366 143.200,89.591 143.200 C 89.816 143.200,90.000 143.470,90.000 143.800 C 90.000 144.130,89.820 144.400,89.600 144.400 C 89.338 144.400,89.198 152.571,89.194 168.100 C 89.190 183.549,89.053 191.591,88.800 191.200 C 88.540 190.798,88.436 192.251,88.485 195.600 L 88.558 200.600 88.796 196.200 C 89.016 192.144,89.070 198.250,89.192 241.100 C 89.219 250.521,89.383 256.400,89.618 256.400 C 89.828 256.400,90.000 256.760,90.000 257.200 C 90.000 257.640,90.180 258.000,90.400 258.000 C 90.620 258.000,90.800 258.281,90.800 258.624 C 90.800 258.967,90.616 259.133,90.390 258.994 C 90.165 258.855,90.349 259.397,90.800 260.200 C 91.251 261.003,91.407 261.528,91.148 261.368 C 90.852 261.185,90.783 261.249,90.962 261.538 C 91.119 261.792,91.507 262.000,91.824 262.000 C 92.141 262.000,92.397 262.315,92.394 262.700 C 92.389 263.298,92.331 263.313,92.000 262.800 C 91.756 262.423,91.610 262.381,91.606 262.686 C 91.603 262.953,91.960 263.365,92.400 263.600 C 92.840 263.835,93.200 264.353,93.200 264.750 C 93.200 265.664,96.506 269.200,97.360 269.200 C 97.712 269.200,98.000 269.476,98.000 269.813 C 98.000 270.149,98.315 270.541,98.700 270.683 C 99.085 270.825,99.490 271.053,99.600 271.190 C 99.710 271.326,100.836 271.938,102.102 272.549 C 103.368 273.160,104.635 273.872,104.917 274.130 C 105.723 274.867,107.135 275.600,107.748 275.600 C 108.055 275.600,108.401 275.960,108.516 276.400 C 108.657 276.940,109.062 277.200,109.759 277.200 C 110.360 277.200,111.003 277.535,111.293 278.000 C 111.568 278.440,112.172 278.800,112.637 278.800 C 113.101 278.800,114.046 279.340,114.737 280.000 C 115.428 280.660,116.264 281.200,116.596 281.200 C 116.928 281.200,117.200 281.337,117.200 281.504 C 117.200 281.671,117.579 282.044,118.042 282.333 C 118.515 282.629,118.765 282.667,118.612 282.420 C 118.463 282.178,118.989 282.345,119.782 282.790 C 120.575 283.236,121.519 283.600,121.879 283.600 C 122.239 283.600,122.422 283.711,122.286 283.848 C 121.913 284.220,123.132 285.289,123.600 285.000 C 123.823 284.862,124.114 285.031,124.246 285.375 C 124.378 285.719,124.910 286.000,125.429 286.000 C 125.962 286.000,126.558 286.347,126.800 286.800 C 127.035 287.240,127.492 287.600,127.814 287.600 C 128.136 287.600,128.400 287.780,128.400 288.000 C 128.400 288.220,128.839 288.400,129.376 288.400 C 129.913 288.400,130.459 288.572,130.588 288.781 C 131.006 289.457,133.362 290.991,133.042 290.379 C 132.875 290.060,133.097 290.206,133.535 290.702 C 133.973 291.198,134.783 291.641,135.337 291.686 C 135.890 291.732,136.255 291.912,136.148 292.085 C 136.040 292.258,136.194 292.400,136.488 292.400 C 136.783 292.400,137.283 292.760,137.600 293.200 C 137.917 293.640,138.486 294.000,138.865 294.000 C 139.243 294.000,139.664 294.180,139.800 294.400 C 139.936 294.620,140.570 294.800,141.210 294.800 C 141.962 294.800,142.523 295.082,142.800 295.600 C 143.035 296.040,143.554 296.400,143.952 296.400 C 144.350 296.400,145.002 296.760,145.400 297.200 C 145.798 297.640,146.416 298.000,146.774 298.000 C 147.131 298.000,147.683 298.360,148.000 298.800 C 148.317 299.240,148.814 299.600,149.105 299.600 C 149.396 299.600,150.020 299.960,150.492 300.400 C 150.964 300.840,151.727 301.200,152.187 301.200 C 152.647 301.200,153.283 301.560,153.600 302.000 C 153.928 302.455,154.635 302.800,155.242 302.800 C 155.970 302.800,156.373 303.053,156.516 303.600 C 156.657 304.141,157.062 304.400,157.763 304.400 C 158.333 304.400,158.800 304.580,158.800 304.800 C 158.800 305.020,159.081 305.200,159.424 305.200 C 159.767 305.200,159.960 305.342,159.852 305.515 C 159.745 305.688,160.129 305.869,160.705 305.917 C 161.281 305.965,162.279 306.543,162.923 307.202 C 164.161 308.468,164.800 308.713,164.800 307.922 C 164.800 307.658,165.394 308.018,166.119 308.722 C 166.845 309.425,167.655 310.000,167.919 310.000 C 168.184 310.000,168.400 310.180,168.400 310.400 C 168.400 310.620,168.861 310.800,169.424 310.800 C 170.004 310.800,170.340 310.973,170.200 311.200 C 170.064 311.420,170.323 311.600,170.776 311.600 C 171.229 311.600,171.600 311.780,171.600 312.000 C 171.600 312.220,171.920 312.400,172.312 312.400 C 172.703 312.400,173.283 312.760,173.600 313.200 C 173.917 313.640,174.487 314.000,174.866 314.000 C 175.245 314.000,175.792 314.315,176.082 314.700 C 176.712 315.536,178.170 316.400,178.949 316.400 C 179.766 316.400,181.569 317.404,182.130 318.172 C 182.397 318.537,183.005 318.865,183.480 318.901 C 183.956 318.937,184.256 319.109,184.149 319.283 C 184.041 319.457,184.233 319.600,184.576 319.600 C 184.919 319.600,185.200 319.780,185.200 320.000 C 185.200 320.220,185.650 320.400,186.200 320.400 C 186.750 320.400,187.200 320.580,187.200 320.800 C 187.200 321.020,187.470 321.200,187.800 321.200 C 188.130 321.200,188.400 321.380,188.400 321.600 C 188.400 321.820,188.844 322.000,189.386 322.000 C 189.962 322.000,190.550 322.332,190.800 322.800 C 191.138 323.432,191.638 323.600,193.181 323.600 C 194.283 323.600,195.199 323.798,195.285 324.054 C 195.499 324.698,203.295 324.715,203.509 324.073 C 203.596 323.813,204.363 323.600,205.215 323.600 C 206.838 323.600,208.800 322.908,208.800 322.336 C 208.800 322.151,209.171 322.000,209.624 322.000 C 210.151 322.000,210.356 322.180,210.194 322.500 C 210.055 322.775,210.224 322.651,210.570 322.224 C 210.917 321.796,211.200 321.607,211.200 321.804 C 211.200 322.000,211.416 321.944,211.680 321.680 C 211.944 321.416,212.463 321.200,212.833 321.200 C 213.202 321.200,214.021 320.686,214.653 320.059 C 215.284 319.431,216.385 318.667,217.100 318.361 C 217.815 318.055,218.400 317.669,218.400 317.502 C 218.400 317.336,218.591 317.200,218.824 317.200 C 219.057 317.200,219.144 317.368,219.017 317.573 C 218.890 317.778,219.330 317.675,219.993 317.343 C 220.657 317.012,221.200 316.485,221.200 316.171 C 221.200 315.857,221.560 315.600,222.000 315.600 C 222.440 315.600,222.800 315.420,222.800 315.200 C 222.800 314.980,223.160 314.800,223.600 314.800 C 224.040 314.800,224.400 314.620,224.400 314.400 C 224.400 314.180,224.760 314.000,225.200 314.000 C 225.640 314.000,226.000 313.820,226.000 313.600 C 226.000 313.380,226.360 313.200,226.800 313.200 C 227.240 313.200,227.600 313.020,227.600 312.800 C 227.600 312.580,227.883 312.400,228.229 312.400 C 228.574 312.400,229.127 312.130,229.457 311.800 C 229.787 311.470,229.909 311.199,229.729 311.198 C 229.548 311.197,230.286 310.747,231.368 310.198 C 232.450 309.649,233.588 309.200,233.896 309.200 C 234.589 309.200,235.653 308.186,235.314 307.848 C 235.178 307.711,235.507 307.600,236.045 307.600 C 236.583 307.600,237.283 307.240,237.600 306.800 C 237.933 306.338,238.635 306.000,239.261 306.000 C 239.995 306.000,240.428 305.741,240.600 305.200 C 240.740 304.760,241.032 304.400,241.251 304.400 C 241.469 304.400,241.536 304.580,241.400 304.800 C 241.264 305.020,241.343 305.200,241.576 305.200 C 241.809 305.200,242.000 305.020,242.000 304.800 C 242.000 304.580,242.276 304.400,242.613 304.400 C 242.949 304.400,243.327 304.134,243.452 303.810 C 243.717 303.119,245.808 302.000,246.835 302.000 C 247.226 302.000,247.660 301.640,247.800 301.200 C 247.940 300.760,248.297 300.400,248.594 300.400 C 248.890 300.400,249.193 300.222,249.267 300.003 C 249.340 299.785,249.882 299.567,250.471 299.519 C 251.060 299.470,251.477 299.324,251.397 299.195 C 251.317 299.066,251.619 298.731,252.068 298.451 C 252.738 298.032,252.827 298.035,252.565 298.470 C 252.184 299.104,253.446 298.185,254.447 297.101 C 254.803 296.715,255.388 296.400,255.747 296.400 C 256.106 296.400,256.400 296.220,256.400 296.000 C 256.400 295.780,256.670 295.600,257.000 295.600 C 257.330 295.600,257.600 295.420,257.600 295.200 C 257.600 294.980,258.050 294.800,258.600 294.800 C 259.150 294.800,259.601 294.665,259.603 294.500 C 259.605 294.335,260.055 293.992,260.604 293.737 C 261.358 293.387,261.534 293.387,261.324 293.737 C 261.171 293.992,261.395 293.930,261.822 293.600 C 263.196 292.536,263.567 292.101,263.314 291.848 C 263.178 291.711,263.547 291.600,264.133 291.600 C 264.720 291.600,265.200 291.449,265.200 291.264 C 265.200 291.080,265.661 290.718,266.225 290.461 C 267.039 290.091,267.188 290.098,266.949 290.497 C 266.590 291.094,267.889 290.138,268.847 289.101 C 269.203 288.715,269.968 288.400,270.547 288.400 C 271.126 288.400,271.600 288.220,271.600 288.000 C 271.600 287.780,271.799 287.600,272.042 287.600 C 272.672 287.600,274.805 285.738,274.511 285.444 C 274.377 285.310,274.815 285.200,275.485 285.200 C 276.266 285.200,276.899 284.907,277.251 284.381 C 277.553 283.931,278.340 283.506,279.000 283.437 C 279.724 283.362,280.251 283.052,280.329 282.656 C 280.411 282.241,280.857 282.000,281.541 282.000 C 282.165 282.000,282.868 281.661,283.200 281.200 C 283.517 280.760,284.069 280.400,284.426 280.400 C 284.784 280.400,285.402 280.040,285.800 279.600 C 286.198 279.160,286.906 278.800,287.374 278.800 C 287.841 278.800,288.483 278.440,288.800 278.000 C 289.117 277.560,289.657 277.200,290.000 277.200 C 290.343 277.200,290.883 276.840,291.200 276.400 C 291.517 275.960,292.069 275.600,292.427 275.600 C 293.493 275.600,295.600 274.385,295.600 273.771 C 295.600 273.403,296.027 273.200,296.800 273.200 C 297.460 273.200,298.000 273.020,298.000 272.800 C 298.000 272.580,298.282 272.400,298.626 272.400 C 298.970 272.400,299.673 271.900,300.187 271.288 C 300.702 270.677,301.635 269.912,302.261 269.588 C 303.801 268.793,304.999 267.667,305.005 267.009 C 305.008 266.711,305.593 265.911,306.305 265.230 C 307.087 264.483,307.600 263.598,307.600 262.997 C 307.600 262.448,307.780 262.000,308.000 262.000 C 308.220 262.000,308.400 261.640,308.400 261.200 C 308.400 260.760,308.580 260.400,308.800 260.400 C 309.020 260.400,309.200 259.860,309.200 259.200 C 309.200 258.540,309.337 258.000,309.504 258.000 C 309.671 258.000,310.044 257.621,310.333 257.158 C 310.622 256.695,310.666 256.436,310.430 256.582 C 309.892 256.914,309.864 256.296,310.392 255.768 C 310.954 255.206,310.980 144.260,310.418 144.073 C 310.188 143.996,310.000 143.578,310.000 143.143 C 310.000 142.669,310.176 142.462,310.441 142.626 C 310.684 142.776,310.594 142.457,310.240 141.917 C 309.886 141.378,309.688 140.816,309.799 140.668 C 309.909 140.521,309.883 140.487,309.739 140.594 C 309.430 140.824,308.400 138.949,308.400 138.154 C 308.400 137.849,308.220 137.600,308.000 137.600 C 307.780 137.600,307.600 137.260,307.600 136.844 C 307.600 136.429,306.520 135.012,305.200 133.696 C 303.880 132.380,302.800 131.010,302.800 130.652 C 302.800 130.225,302.458 130.000,301.813 130.000 C 301.102 130.000,300.889 129.833,301.054 129.403 C 301.192 129.044,300.989 128.698,300.542 128.533 C 300.134 128.382,299.702 128.115,299.583 127.939 C 299.463 127.764,298.968 127.560,298.482 127.485 C 297.996 127.411,297.315 127.002,296.969 126.575 C 296.624 126.149,296.455 126.025,296.594 126.300 C 296.745 126.598,296.586 126.800,296.200 126.800 C 295.844 126.800,295.664 126.620,295.800 126.400 C 295.936 126.180,295.773 126.000,295.438 126.000 C 295.102 126.000,294.635 125.640,294.400 125.200 C 294.165 124.760,293.684 124.400,293.333 124.400 C 292.981 124.400,292.403 124.085,292.047 123.700 C 291.336 122.930,288.180 121.200,287.488 121.200 C 287.248 121.200,286.606 120.795,286.061 120.300 C 285.517 119.805,285.228 119.670,285.420 119.999 C 285.612 120.328,285.060 120.013,284.194 119.299 C 283.327 118.585,282.299 118.000,281.909 118.000 C 281.519 118.000,281.200 117.820,281.200 117.600 C 281.200 117.380,280.720 117.200,280.133 117.200 C 279.547 117.200,279.178 117.089,279.314 116.952 C 279.669 116.597,278.574 115.600,277.829 115.600 C 277.483 115.600,277.200 115.420,277.200 115.200 C 277.200 114.980,276.654 114.800,275.987 114.800 C 275.281 114.800,274.679 114.551,274.546 114.202 C 274.419 113.874,274.189 113.683,274.033 113.780 C 273.877 113.876,273.243 113.519,272.623 112.986 C 272.003 112.453,271.311 112.131,271.086 112.270 C 270.861 112.410,270.783 112.352,270.912 112.142 C 271.042 111.932,270.781 111.531,270.332 111.251 C 269.882 110.969,269.635 110.933,269.782 111.170 C 269.928 111.407,269.878 111.600,269.670 111.600 C 269.463 111.600,269.199 111.240,269.084 110.800 C 268.949 110.284,268.538 110.000,267.926 110.000 C 267.404 110.000,266.717 109.640,266.400 109.200 C 266.083 108.760,265.503 108.400,265.112 108.400 C 264.720 108.400,264.400 108.220,264.400 108.000 C 264.400 107.780,264.040 107.600,263.600 107.600 C 263.160 107.600,262.800 107.420,262.800 107.200 C 262.800 106.980,262.455 106.800,262.033 106.800 C 261.612 106.800,261.207 106.665,261.133 106.500 C 261.060 106.335,260.145 105.767,259.100 105.237 C 258.055 104.708,257.200 104.115,257.200 103.920 C 257.200 103.725,256.975 103.594,256.700 103.630 C 255.506 103.785,254.800 103.559,254.800 103.024 C 254.800 102.707,254.592 102.319,254.338 102.162 C 254.052 101.985,253.985 102.052,254.162 102.338 C 254.319 102.592,254.300 102.800,254.120 102.800 C 253.940 102.800,253.568 102.440,253.293 102.000 C 253.018 101.560,252.525 101.200,252.197 101.200 C 251.868 101.200,251.600 101.020,251.600 100.800 C 251.600 100.580,251.409 100.400,251.176 100.400 C 250.942 100.400,250.889 100.621,251.059 100.895 C 251.227 101.168,250.572 100.808,249.604 100.095 C 248.635 99.383,247.530 98.800,247.148 98.800 C 246.766 98.800,246.340 98.440,246.200 98.000 C 246.034 97.478,245.595 97.200,244.934 97.200 C 244.324 97.200,243.475 96.722,242.800 96.000 C 242.183 95.340,241.391 94.800,241.040 94.800 C 240.688 94.800,240.400 94.620,240.400 94.400 C 240.400 94.180,239.903 94.000,239.296 94.000 C 238.626 94.000,237.996 93.686,237.693 93.200 C 237.374 92.690,236.760 92.400,235.997 92.400 C 235.338 92.400,234.800 92.264,234.800 92.098 C 234.800 91.931,234.279 91.565,233.643 91.283 C 233.006 91.001,232.393 90.417,232.280 89.985 C 232.165 89.545,231.734 89.200,231.299 89.200 C 230.232 89.200,227.944 88.015,228.202 87.596 C 228.318 87.409,228.202 87.125,227.945 86.966 C 227.652 86.785,227.584 86.850,227.762 87.138 C 227.919 87.392,227.869 87.600,227.651 87.600 C 227.432 87.600,227.140 87.240,227.000 86.800 C 226.779 86.104,225.826 85.762,224.670 85.963 C 224.489 85.994,224.436 85.865,224.554 85.675 C 224.789 85.295,221.856 83.600,220.962 83.600 C 220.653 83.600,220.400 83.463,220.400 83.296 C 220.400 83.129,220.021 82.756,219.558 82.467 C 219.095 82.178,218.836 82.134,218.982 82.370 C 219.128 82.607,219.100 82.800,218.920 82.800 C 218.740 82.800,218.368 82.440,218.093 82.000 C 217.818 81.560,217.166 81.200,216.643 81.200 C 216.030 81.200,215.619 80.917,215.484 80.400 C 215.323 79.784,214.938 79.600,213.814 79.600 C 212.942 79.600,212.452 79.439,212.600 79.200 C 212.741 78.972,212.396 78.800,211.800 78.800 C 211.204 78.800,210.859 78.628,211.000 78.400 C 211.140 78.173,210.805 78.000,210.227 78.000 C 209.640 78.000,208.995 77.660,208.707 77.200 C 208.312 76.567,207.774 76.400,206.127 76.400 C 204.983 76.400,203.949 76.241,203.829 76.046 C 203.502 75.517,201.098 75.245,200.324 75.649 C 199.912 75.865,199.552 75.846,199.401 75.601 C 199.026 74.996,198.400 75.120,198.400 75.800 M201.200 100.861 C 201.200 101.047,201.549 101.200,201.976 101.200 C 202.403 101.200,202.876 101.399,203.026 101.643 C 203.218 101.953,203.398 101.927,203.627 101.556 C 203.882 101.143,204.126 101.223,204.724 101.913 C 205.207 102.469,205.952 102.800,206.720 102.800 C 207.571 102.800,208.019 103.031,208.186 103.557 C 208.398 104.225,209.015 104.583,210.675 105.002 C 210.936 105.068,211.555 105.499,212.050 105.961 C 212.546 106.422,213.142 106.797,213.375 106.794 C 213.609 106.791,213.530 106.613,213.200 106.400 C 212.780 106.129,212.754 106.010,213.113 106.006 C 213.394 106.003,213.725 106.259,213.846 106.576 C 213.968 106.893,214.524 107.451,215.083 107.817 C 215.641 108.184,215.976 108.284,215.826 108.041 C 215.676 107.799,215.743 107.600,215.976 107.600 C 216.209 107.600,216.400 107.780,216.400 108.000 C 216.400 108.220,216.681 108.400,217.024 108.400 C 217.367 108.400,217.536 108.580,217.400 108.800 C 217.260 109.027,217.596 109.200,218.176 109.200 C 218.739 109.200,219.200 109.380,219.200 109.600 C 219.200 109.820,219.476 110.000,219.813 110.000 C 220.149 110.000,220.524 110.259,220.646 110.575 C 220.767 110.891,221.121 111.052,221.433 110.932 C 221.812 110.787,222.000 110.994,222.000 111.557 C 222.000 112.021,222.191 112.400,222.424 112.400 C 222.657 112.400,222.746 112.237,222.623 112.037 C 222.500 111.838,222.848 111.883,223.396 112.137 C 223.945 112.392,224.395 112.814,224.397 113.076 C 224.399 113.338,224.608 113.681,224.862 113.838 C 225.148 114.015,225.215 113.948,225.038 113.662 C 224.881 113.408,224.943 113.200,225.176 113.200 C 225.409 113.200,225.600 113.380,225.600 113.600 C 225.600 113.820,225.825 114.004,226.100 114.009 C 226.375 114.014,227.050 114.370,227.600 114.800 C 228.150 115.230,228.984 115.586,229.453 115.591 C 229.966 115.596,230.390 115.920,230.516 116.400 C 230.668 116.982,231.062 117.200,231.959 117.200 C 232.760 117.200,233.369 117.481,233.693 118.000 C 233.979 118.459,234.626 118.800,235.208 118.800 C 235.766 118.800,236.462 119.131,236.754 119.536 C 237.071 119.976,237.631 120.211,238.142 120.119 C 238.969 119.970,255.649 129.059,264.400 134.426 C 264.730 134.629,266.186 135.413,267.635 136.169 C 280.737 143.007,285.286 146.297,287.311 150.400 L 288.200 152.200 288.170 200.200 L 288.139 248.200 287.233 249.955 C 285.415 253.479,280.986 256.712,269.912 262.600 C 266.421 264.456,262.112 266.938,260.551 267.991 C 259.629 268.613,258.493 269.244,258.026 269.392 C 257.559 269.540,256.241 270.277,255.098 271.031 C 253.954 271.784,252.875 272.400,252.700 272.400 C 252.525 272.400,250.949 273.255,249.198 274.300 C 247.448 275.345,245.517 276.471,244.908 276.803 C 244.298 277.134,243.170 277.792,242.400 278.265 C 241.630 278.737,240.022 279.411,238.827 279.762 C 236.234 280.524,236.279 280.520,236.638 279.938 C 236.811 279.659,236.748 279.585,236.479 279.751 C 236.235 279.902,236.136 280.290,236.260 280.613 C 236.426 281.045,236.183 281.200,235.341 281.200 C 234.589 281.200,233.810 281.610,233.065 282.400 C 232.442 283.060,231.587 283.600,231.166 283.600 C 230.745 283.600,230.400 283.801,230.400 284.047 C 230.400 284.301,230.045 284.400,229.576 284.278 C 229.071 284.146,228.666 284.283,228.533 284.631 C 228.413 284.944,228.064 285.200,227.757 285.200 C 227.451 285.200,227.200 285.380,227.200 285.600 C 227.200 285.820,226.930 286.000,226.600 286.000 C 226.270 286.000,226.000 286.199,226.000 286.443 C 226.000 286.686,225.730 286.782,225.400 286.655 C 225.035 286.515,224.800 286.655,224.800 287.013 C 224.800 287.336,224.442 287.600,224.005 287.600 C 223.567 287.600,222.841 287.915,222.392 288.300 C 221.597 288.981,221.433 289.045,220.227 289.150 C 219.912 289.178,219.540 289.560,219.400 290.000 C 219.260 290.440,218.798 290.800,218.373 290.800 C 217.948 290.800,217.600 290.980,217.600 291.200 C 217.600 291.420,217.409 291.600,217.176 291.600 C 216.943 291.600,216.861 291.425,216.993 291.211 C 217.125 290.998,216.508 291.210,215.621 291.683 C 214.734 292.157,213.904 292.872,213.777 293.272 C 213.650 293.672,213.198 294.000,212.773 294.000 C 212.348 294.000,212.000 294.180,212.000 294.400 C 212.000 294.620,211.809 294.800,211.576 294.800 C 211.343 294.800,211.264 294.620,211.400 294.400 C 211.536 294.180,211.457 294.000,211.224 294.000 C 210.991 294.000,210.800 294.360,210.800 294.800 C 210.800 295.387,210.533 295.600,209.800 295.600 C 209.250 295.600,208.800 295.780,208.800 296.000 C 208.800 296.220,208.609 296.400,208.376 296.400 C 208.143 296.400,208.081 296.192,208.238 295.938 C 208.415 295.652,208.348 295.585,208.062 295.762 C 207.808 295.919,207.600 296.322,207.600 296.657 C 207.600 296.992,207.375 297.191,207.100 297.098 C 206.825 297.006,206.362 297.216,206.070 297.565 C 205.646 298.074,205.592 298.081,205.801 297.600 C 205.944 297.270,205.695 297.415,205.249 297.922 C 204.802 298.429,204.203 298.812,203.918 298.774 C 202.400 298.572,201.020 298.825,201.600 299.200 C 202.066 299.501,201.949 299.589,201.076 299.594 C 200.293 299.598,200.038 299.449,200.235 299.100 C 200.461 298.700,200.410 298.700,199.979 299.100 C 199.085 299.930,195.613 299.295,195.603 298.300 C 195.601 298.135,195.074 298.000,194.432 298.000 C 193.605 298.000,192.791 297.533,191.647 296.400 C 190.758 295.520,189.889 294.803,189.716 294.806 C 189.542 294.809,189.670 294.987,190.000 295.200 C 190.513 295.531,190.498 295.589,189.900 295.594 C 189.515 295.597,189.200 295.343,189.200 295.029 C 189.200 294.715,188.657 294.188,187.993 293.857 C 187.330 293.525,186.890 293.422,187.017 293.627 C 187.144 293.832,186.967 294.000,186.624 294.000 C 186.281 294.000,186.000 293.820,186.000 293.600 C 186.000 293.380,185.730 293.200,185.400 293.200 C 185.070 293.200,184.800 293.020,184.800 292.800 C 184.800 292.580,184.551 292.400,184.247 292.400 C 183.942 292.400,183.599 292.040,183.484 291.600 C 183.331 291.013,182.938 290.800,182.014 290.800 C 181.275 290.800,180.855 290.634,181.000 290.400 C 181.136 290.180,180.887 290.000,180.447 290.000 C 180.007 290.000,179.536 289.820,179.400 289.600 C 179.264 289.380,178.837 289.200,178.452 289.200 C 178.066 289.200,177.402 288.885,176.975 288.500 C 176.549 288.115,175.705 287.545,175.100 287.232 C 174.495 286.920,174.000 286.436,174.000 286.156 C 174.000 285.876,173.792 285.519,173.538 285.362 C 173.252 285.185,173.185 285.252,173.362 285.538 C 173.523 285.799,173.419 285.994,173.124 285.987 C 172.426 285.970,171.200 285.018,171.200 284.493 C 171.200 284.263,170.840 284.169,170.400 284.284 C 169.844 284.430,169.600 284.296,169.600 283.847 C 169.600 283.491,169.433 283.245,169.228 283.300 C 169.024 283.355,168.560 283.040,168.199 282.600 C 167.837 282.160,167.655 282.025,167.794 282.300 C 167.943 282.594,167.791 282.800,167.424 282.800 C 167.081 282.800,166.821 282.665,166.847 282.500 C 167.004 281.507,166.672 281.200,165.443 281.200 C 164.585 281.200,163.998 280.971,163.847 280.579 C 163.693 280.178,163.771 280.058,164.066 280.241 C 164.348 280.415,164.414 280.346,164.238 280.062 C 164.081 279.808,163.238 279.600,162.365 279.600 C 160.643 279.600,158.364 278.566,151.800 274.807 C 149.600 273.548,146.180 271.657,144.200 270.606 C 142.220 269.555,139.700 268.108,138.600 267.390 C 137.500 266.672,135.610 265.582,134.400 264.968 C 133.190 264.353,130.310 262.774,128.000 261.459 C 125.690 260.144,122.307 258.220,120.483 257.182 C 116.070 254.674,114.552 253.216,113.079 250.066 L 111.846 247.433 111.845 200.416 L 111.844 153.400 112.706 151.058 C 113.923 147.754,115.273 146.178,118.705 144.053 C 120.351 143.034,122.531 141.648,123.549 140.973 C 124.567 140.298,128.049 138.356,131.286 136.658 C 134.523 134.959,137.279 133.395,137.411 133.182 C 137.543 132.969,138.314 132.464,139.125 132.060 C 139.936 131.656,144.110 129.371,148.400 126.981 C 159.311 120.903,160.340 120.400,161.853 120.400 C 162.760 120.400,163.355 120.141,163.693 119.600 C 163.982 119.137,164.626 118.800,165.221 118.800 C 165.786 118.800,166.636 118.440,167.108 118.000 C 167.580 117.560,168.204 117.200,168.495 117.200 C 168.786 117.200,169.283 116.840,169.600 116.400 C 169.933 115.938,170.635 115.600,171.261 115.600 C 171.995 115.600,172.428 115.341,172.600 114.800 C 172.740 114.360,173.112 114.000,173.427 114.000 C 173.742 114.000,174.000 113.820,174.000 113.600 C 174.000 113.380,174.191 113.200,174.424 113.200 C 174.657 113.200,174.733 113.425,174.593 113.700 C 174.453 113.975,174.697 113.795,175.134 113.300 C 175.571 112.805,176.124 112.400,176.364 112.400 C 176.604 112.400,176.800 112.220,176.800 112.000 C 176.800 111.780,177.070 111.600,177.400 111.600 C 177.730 111.600,178.001 111.465,178.003 111.300 C 178.008 110.858,180.021 110.000,181.053 110.000 C 181.595 110.000,182.046 109.685,182.200 109.200 C 182.340 108.760,182.712 108.400,183.027 108.400 C 183.342 108.400,183.600 108.220,183.600 108.000 C 183.600 107.780,183.834 107.600,184.120 107.600 C 184.856 107.600,186.793 106.659,186.797 106.300 C 186.799 106.135,187.081 106.000,187.424 106.000 C 187.767 106.000,187.936 105.820,187.800 105.600 C 187.664 105.380,187.908 105.200,188.343 105.200 C 188.778 105.200,189.193 105.034,189.267 104.831 C 189.340 104.627,190.029 104.391,190.799 104.304 C 191.832 104.189,192.197 103.956,192.199 103.413 C 192.200 102.685,192.553 102.528,195.100 102.120 C 195.815 102.006,196.400 101.752,196.400 101.556 C 196.400 101.360,196.839 101.200,197.376 101.200 C 197.913 101.200,198.457 101.032,198.583 100.827 C 198.869 100.364,201.200 100.395,201.200 100.861 M304.114 131.720 C 304.601 132.226,305.074 132.587,305.164 132.523 C 305.398 132.355,303.942 130.800,303.552 130.800 C 303.374 130.800,303.627 131.214,304.114 131.720 M311.293 148.800 C 311.293 149.570,311.375 149.885,311.476 149.500 C 311.576 149.115,311.576 148.485,311.476 148.100 C 311.375 147.715,311.293 148.030,311.293 148.800 M88.514 209.800 C 88.517 210.900,88.595 211.303,88.687 210.695 C 88.779 210.086,88.777 209.186,88.682 208.695 C 88.587 208.203,88.511 208.700,88.514 209.800 M88.509 218.800 C 88.509 219.790,88.587 220.195,88.682 219.700 C 88.778 219.205,88.778 218.395,88.682 217.900 C 88.587 217.405,88.509 217.810,88.509 218.800 M88.528 229.200 C 88.528 230.630,88.601 231.215,88.689 230.500 C 88.778 229.785,88.778 228.615,88.689 227.900 C 88.601 227.185,88.528 227.770,88.528 229.200 M88.567 239.800 C 88.567 243.980,88.626 245.636,88.698 243.479 C 88.771 241.323,88.770 237.903,88.698 235.879 C 88.625 233.856,88.566 235.620,88.567 239.800 M88.493 249.600 C 88.493 250.370,88.575 250.685,88.676 250.300 C 88.776 249.915,88.776 249.285,88.676 248.900 C 88.575 248.515,88.493 248.830,88.493 249.600 M231.424 282.613 C 230.988 282.942,230.869 283.200,231.152 283.200 C 231.430 283.200,231.927 282.930,232.257 282.600 C 233.024 281.833,232.442 281.842,231.424 282.613 " stroke="none" fill="#0c93a1" fill-rule="evenodd"></path><path id="path2" d="M154.741 125.264 C 152.023 126.808,149.406 128.227,148.924 128.417 C 148.443 128.606,146.849 129.490,145.383 130.381 C 143.918 131.271,142.634 132.000,142.531 132.000 C 142.428 132.000,141.592 132.516,140.672 133.147 C 139.752 133.778,138.010 134.805,136.800 135.429 C 135.590 136.054,133.700 137.127,132.600 137.814 C 131.500 138.502,130.243 139.195,129.807 139.355 C 128.234 139.933,117.780 146.355,116.918 147.273 C 116.433 147.790,115.533 149.110,114.918 150.207 L 113.800 152.200 113.800 200.200 L 113.800 248.200 114.800 250.048 C 116.203 252.640,118.085 253.989,129.000 260.225 C 134.280 263.241,139.374 266.225,140.320 266.855 C 141.266 267.485,142.148 268.000,142.281 268.000 C 142.413 268.000,143.903 268.797,145.593 269.771 C 147.282 270.746,149.730 272.106,151.032 272.793 C 152.334 273.481,154.291 274.590,155.380 275.257 C 160.067 278.130,161.073 278.120,161.239 275.200 C 161.295 274.210,161.486 273.206,161.662 272.969 C 161.839 272.732,161.827 271.991,161.635 271.322 C 161.436 270.629,161.437 269.869,161.637 269.554 C 162.123 268.786,162.086 268.299,161.566 268.621 C 161.097 268.911,161.288 260.515,161.823 257.300 C 162.016 256.135,161.963 255.600,161.653 255.600 C 161.336 255.600,161.222 254.073,161.275 250.500 C 161.349 245.419,161.350 245.413,161.616 248.800 L 161.883 252.200 161.765 248.600 C 161.700 246.620,161.587 244.550,161.513 244.000 C 161.439 243.450,161.510 242.904,161.672 242.787 C 161.834 242.670,161.998 241.171,162.038 239.456 C 162.097 236.897,162.244 236.254,162.855 235.873 C 163.265 235.617,163.600 235.119,163.600 234.766 C 163.600 234.413,163.960 233.798,164.400 233.400 C 164.840 233.002,165.200 232.474,165.200 232.226 C 165.200 231.979,165.560 231.517,166.000 231.200 C 166.440 230.883,166.800 230.303,166.800 229.912 C 166.800 229.489,167.097 229.200,167.530 229.200 C 167.932 229.200,168.683 228.750,169.200 228.200 C 170.367 226.958,169.720 226.917,167.638 228.100 C 166.027 229.016,163.211 232.191,163.204 233.100 C 163.202 233.375,163.020 233.600,162.800 233.600 C 162.580 233.600,162.400 233.960,162.400 234.400 C 162.400 234.840,162.234 235.200,162.031 235.200 C 161.025 235.200,160.021 255.691,160.383 268.837 C 160.417 270.054,160.226 270.847,159.817 271.186 C 159.478 271.468,159.200 272.216,159.200 272.849 C 159.200 274.429,158.480 274.307,158.325 272.700 C 158.177 271.156,156.801 270.713,155.583 271.815 C 154.636 272.672,153.103 272.340,151.747 270.984 C 151.206 270.443,150.431 270.000,150.025 270.000 C 149.618 270.000,149.186 269.739,149.063 269.421 C 148.941 269.102,148.067 268.641,147.121 268.395 C 146.069 268.122,145.005 267.480,144.385 266.743 C 143.826 266.080,142.206 265.031,140.785 264.411 C 138.899 263.590,138.025 262.950,137.553 262.047 C 136.617 260.258,135.993 259.600,135.227 259.600 C 134.210 259.600,133.257 258.720,133.060 257.600 C 132.699 255.544,132.293 254.853,131.176 254.390 C 129.890 253.857,127.600 250.202,127.600 248.681 C 127.600 248.170,127.285 247.402,126.900 246.975 C 126.292 246.302,126.188 245.196,126.111 238.600 C 125.812 213.060,125.754 210.962,125.326 210.198 C 124.823 209.300,125.090 204.115,125.657 203.765 C 125.847 203.648,125.790 203.157,125.530 202.676 C 125.234 202.125,125.110 200.464,125.198 198.200 C 125.344 194.426,125.341 193.750,125.151 187.600 C 125.087 185.510,125.078 182.630,125.133 181.200 C 125.187 179.770,125.157 177.790,125.065 176.800 C 124.974 175.810,125.073 174.550,125.285 174.000 C 125.497 173.450,125.844 171.110,126.055 168.800 C 126.505 163.870,127.483 159.530,128.243 159.085 C 128.540 158.912,129.356 157.922,130.057 156.885 C 131.776 154.345,134.691 151.209,136.400 150.062 C 137.170 149.545,138.430 148.544,139.200 147.837 C 140.526 146.621,143.888 144.468,146.662 143.059 C 147.356 142.707,148.171 142.189,148.473 141.909 C 149.800 140.677,151.634 139.600,152.404 139.600 C 153.445 139.600,155.691 138.477,156.122 137.741 C 156.596 136.933,158.749 137.208,159.036 138.114 C 159.166 138.523,159.508 138.767,159.797 138.657 C 160.510 138.383,160.612 139.779,160.748 151.766 C 160.810 157.285,161.028 161.971,161.231 162.180 C 161.434 162.389,161.600 162.884,161.600 163.280 C 161.600 163.676,161.780 164.000,162.000 164.000 C 162.220 164.000,162.400 164.234,162.400 164.520 C 162.400 165.256,163.341 167.193,163.700 167.197 C 163.865 167.199,164.000 167.648,164.000 168.196 C 164.000 169.195,167.141 171.967,168.300 171.990 C 168.575 171.996,168.800 172.180,168.800 172.400 C 168.800 172.620,169.115 172.804,169.500 172.809 C 169.885 172.814,170.650 173.170,171.200 173.600 C 171.750 174.030,172.527 174.386,172.926 174.391 C 173.326 174.396,174.011 174.592,174.449 174.826 C 175.436 175.355,225.655 175.381,226.700 174.853 C 227.085 174.659,228.120 174.141,229.000 173.703 C 233.821 171.302,234.741 170.635,235.595 168.925 C 236.068 167.977,236.675 166.977,236.944 166.701 C 238.846 164.751,239.077 163.162,239.367 150.000 C 239.519 143.070,239.784 136.439,239.955 135.265 C 240.368 132.426,241.701 131.548,242.595 133.526 C 242.812 134.007,243.622 134.604,244.395 134.852 C 245.168 135.099,247.261 136.155,249.047 137.198 C 250.962 138.316,253.053 139.207,254.145 139.371 C 255.663 139.598,256.041 139.825,256.242 140.624 C 256.438 141.405,256.743 141.600,257.771 141.600 C 258.647 141.600,259.336 141.922,259.935 142.611 C 260.419 143.168,261.351 143.730,262.007 143.861 C 262.663 143.993,263.200 144.236,263.200 144.401 C 263.200 144.567,263.785 144.934,264.500 145.215 C 265.215 145.497,266.700 146.396,267.800 147.213 C 268.900 148.030,270.835 149.377,272.100 150.206 C 273.365 151.035,274.407 152.003,274.415 152.357 C 274.424 152.710,275.137 153.489,276.002 154.087 C 276.866 154.684,278.015 155.854,278.555 156.687 C 279.095 157.519,280.001 158.723,280.568 159.362 C 281.136 160.001,281.600 160.773,281.600 161.076 C 281.600 161.380,281.850 162.027,282.155 162.514 C 282.460 163.001,282.829 164.075,282.973 164.900 C 283.132 165.805,283.461 166.400,283.804 166.400 C 285.368 166.400,285.402 167.097,285.331 197.800 C 285.229 241.834,285.162 246.000,284.553 246.000 C 283.951 246.000,283.143 248.586,283.475 249.450 C 283.759 250.192,282.098 252.012,281.385 251.739 C 281.092 251.626,279.695 252.664,278.251 254.068 C 274.483 257.732,274.341 257.834,269.874 260.132 C 267.633 261.285,265.006 262.762,264.035 263.414 C 261.409 265.179,260.345 265.814,254.000 269.401 C 250.810 271.205,246.760 273.500,245.000 274.503 C 243.240 275.505,241.260 276.387,240.600 276.462 L 239.400 276.600 239.279 257.050 C 239.152 236.615,238.950 234.433,237.119 233.667 C 236.943 233.593,236.800 233.188,236.800 232.767 C 236.800 232.345,236.620 232.000,236.400 232.000 C 236.180 232.000,236.000 231.767,236.000 231.483 C 236.000 230.839,232.659 227.517,232.163 227.669 C 231.853 227.763,228.600 226.373,226.301 225.162 C 225.223 224.595,174.470 224.644,173.784 225.213 C 173.482 225.464,173.068 225.565,172.863 225.439 C 172.658 225.312,172.268 225.477,171.996 225.804 C 171.724 226.132,171.254 226.400,170.951 226.400 C 170.648 226.400,170.400 226.670,170.400 227.000 C 170.400 227.330,170.670 227.600,171.000 227.600 C 171.330 227.600,171.600 227.420,171.600 227.200 C 171.600 226.980,171.924 226.800,172.320 226.800 C 172.716 226.800,173.211 226.632,173.420 226.426 C 173.629 226.221,175.358 225.996,177.262 225.927 C 179.166 225.858,180.641 225.666,180.538 225.500 C 180.436 225.335,180.803 225.200,181.353 225.200 C 181.903 225.200,182.464 225.380,182.600 225.600 C 182.736 225.820,183.962 225.997,185.324 225.994 C 187.070 225.990,187.623 225.873,187.200 225.600 C 186.745 225.306,186.914 225.211,187.900 225.206 C 188.615 225.203,189.200 225.380,189.200 225.600 C 189.200 225.822,190.135 225.979,191.300 225.953 C 193.095 225.912,193.226 225.861,192.200 225.600 C 191.415 225.400,192.521 225.280,195.400 225.253 C 198.373 225.226,199.605 225.338,199.200 225.600 C 198.777 225.873,199.338 225.990,201.100 225.994 C 202.504 225.997,203.600 225.825,203.600 225.600 C 203.600 225.380,204.320 225.200,205.200 225.200 C 206.080 225.200,206.800 225.380,206.800 225.600 C 206.800 225.820,207.160 226.000,207.600 226.000 C 208.040 226.000,208.400 225.820,208.400 225.600 C 208.400 225.356,209.921 225.227,212.300 225.269 C 216.088 225.336,216.125 225.346,213.600 225.600 L 211.000 225.862 213.924 225.931 C 215.787 225.975,216.758 225.855,216.600 225.600 C 216.447 225.353,217.087 225.215,218.276 225.240 C 219.837 225.272,220.011 225.340,219.200 225.600 L 218.200 225.920 219.220 225.960 C 219.781 225.982,220.482 225.775,220.779 225.500 C 221.210 225.100,221.261 225.100,221.035 225.500 C 220.880 225.775,220.943 226.000,221.176 226.000 C 221.409 226.000,221.600 225.820,221.600 225.600 C 221.600 225.380,221.791 225.200,222.024 225.200 C 222.257 225.200,222.347 225.361,222.226 225.559 C 222.104 225.756,222.993 225.929,224.202 225.944 C 225.830 225.963,226.626 226.180,227.268 226.778 C 227.834 227.305,228.292 227.456,228.584 227.213 C 228.880 226.968,229.199 227.106,229.520 227.620 C 229.788 228.049,230.277 228.400,230.607 228.400 C 230.937 228.400,231.772 228.940,232.463 229.600 C 233.154 230.260,233.962 230.800,234.259 230.800 C 234.557 230.800,234.800 231.120,234.800 231.512 C 234.800 231.903,235.160 232.483,235.600 232.800 C 236.040 233.117,236.400 233.663,236.400 234.013 C 236.400 234.363,236.760 235.036,237.200 235.508 C 238.090 236.464,238.314 237.836,237.500 237.347 C 237.104 237.109,237.102 237.172,237.488 237.650 C 237.756 237.982,238.020 238.826,238.073 239.527 C 238.127 240.227,238.348 240.800,238.565 240.800 C 238.782 240.800,238.744 241.016,238.480 241.280 C 237.900 241.860,237.837 244.000,238.400 244.000 C 238.620 244.000,238.779 244.765,238.753 245.700 C 238.708 247.295,238.687 247.326,238.400 246.200 L 238.095 245.000 238.047 246.300 C 238.021 247.015,238.173 247.600,238.384 247.600 C 238.612 247.600,238.745 249.744,238.711 252.900 C 238.674 256.406,238.564 257.591,238.387 256.400 C 238.211 255.213,238.124 256.166,238.131 259.200 C 238.140 263.268,238.171 263.476,238.402 261.000 C 238.552 259.394,238.646 261.953,238.622 267.000 C 238.600 271.840,238.420 276.145,238.223 276.566 C 237.965 277.117,237.995 277.250,238.332 277.042 C 238.589 276.883,238.800 276.943,238.800 277.176 C 238.800 278.469,241.752 277.303,247.834 273.609 C 249.290 272.724,250.580 272.000,250.701 272.000 C 250.821 272.000,253.774 270.335,257.264 268.300 C 263.765 264.508,267.971 262.130,272.200 259.854 C 273.520 259.143,275.604 257.917,276.832 257.129 C 278.059 256.342,279.424 255.583,279.864 255.443 C 281.020 255.076,285.495 250.696,286.092 249.346 C 286.729 247.910,287.064 157.307,286.448 153.341 C 286.006 150.499,284.675 148.247,282.495 146.653 C 280.449 145.157,272.182 140.293,268.675 138.522 C 267.094 137.723,265.080 136.596,264.200 136.018 C 263.320 135.439,262.150 134.743,261.600 134.471 C 261.050 134.199,259.520 133.332,258.200 132.543 C 256.880 131.754,254.810 130.569,253.600 129.909 C 252.390 129.250,248.835 127.271,245.700 125.512 C 242.461 123.696,239.740 122.414,239.400 122.545 C 238.825 122.765,238.457 142.813,238.790 155.700 C 238.860 158.414,238.759 159.201,238.340 159.206 C 237.927 159.211,237.941 159.303,238.400 159.600 C 238.800 159.858,238.833 159.990,238.500 159.994 C 238.175 159.998,238.000 160.630,238.000 161.800 C 238.000 162.790,237.820 163.600,237.600 163.600 C 237.380 163.600,237.200 164.050,237.200 164.600 C 237.200 165.150,237.020 165.600,236.800 165.600 C 236.580 165.600,236.400 165.830,236.400 166.112 C 236.400 166.393,236.040 166.883,235.600 167.200 C 235.160 167.517,234.800 168.020,234.800 168.317 C 234.800 169.057,234.072 169.703,232.300 170.534 C 231.475 170.921,230.800 171.499,230.800 171.819 C 230.800 172.138,230.485 172.397,230.100 172.394 C 229.502 172.389,229.487 172.331,230.000 172.000 C 230.456 171.706,230.471 171.611,230.063 171.606 C 229.767 171.603,229.431 171.960,229.316 172.400 C 229.201 172.840,228.847 173.200,228.530 173.200 C 228.212 173.200,228.064 173.020,228.200 172.800 C 228.563 172.212,228.030 172.313,227.390 172.952 C 227.087 173.256,226.950 173.616,227.086 173.752 C 227.222 173.889,226.628 174.011,225.767 174.024 C 224.905 174.037,219.700 174.101,214.200 174.167 C 208.700 174.233,203.587 174.431,202.838 174.606 C 201.844 174.839,201.553 174.800,201.761 174.462 C 201.919 174.208,201.857 174.000,201.624 174.000 C 201.391 174.000,201.200 174.180,201.200 174.400 C 201.200 174.620,200.660 174.800,200.000 174.800 C 199.340 174.800,198.800 174.620,198.800 174.400 C 198.800 174.152,196.637 174.002,193.100 174.006 C 189.456 174.010,187.611 174.146,187.984 174.382 C 188.409 174.650,188.221 174.741,187.298 174.715 C 186.599 174.695,186.112 174.543,186.215 174.376 C 186.452 173.993,180.849 173.921,180.246 174.299 C 179.479 174.781,177.908 174.872,178.189 174.418 C 178.358 174.145,177.601 174.000,176.000 174.000 C 174.470 174.000,173.645 173.850,173.800 173.600 C 173.936 173.380,173.677 173.200,173.224 173.200 C 172.771 173.200,172.400 173.020,172.400 172.800 C 172.400 172.580,171.914 172.400,171.319 172.400 C 170.649 172.400,169.714 171.906,168.859 171.100 C 168.100 170.385,167.608 170.025,167.764 170.300 C 167.920 170.575,167.857 170.800,167.624 170.800 C 167.391 170.800,167.200 170.626,167.200 170.413 C 167.200 170.201,166.570 169.397,165.800 168.627 C 165.030 167.857,164.400 167.041,164.400 166.813 C 164.400 166.586,164.241 166.400,164.047 166.400 C 163.852 166.400,163.582 166.085,163.446 165.700 C 163.311 165.315,163.086 164.750,162.948 164.444 C 162.789 164.094,162.863 163.992,163.148 164.168 C 163.397 164.322,163.600 164.257,163.600 164.024 C 163.600 163.791,163.420 163.600,163.200 163.600 C 162.980 163.600,162.800 163.276,162.800 162.880 C 162.800 162.484,162.625 161.985,162.411 161.771 C 162.187 161.547,161.939 156.481,161.825 149.791 C 161.486 129.895,161.075 122.991,160.212 122.660 C 159.920 122.548,157.458 123.720,154.741 125.264 M196.713 174.693 C 195.676 174.776,193.876 174.776,192.713 174.695 C 191.551 174.614,192.400 174.547,194.600 174.546 C 196.800 174.545,197.751 174.611,196.713 174.693 M202.500 225.482 C 202.005 225.578,201.195 225.578,200.700 225.482 C 200.205 225.387,200.610 225.309,201.600 225.309 C 202.590 225.309,202.995 225.387,202.500 225.482 M195.300 225.876 C 195.685 225.976,196.315 225.976,196.700 225.876 C 197.085 225.775,196.770 225.693,196.000 225.693 C 195.230 225.693,194.915 225.775,195.300 225.876 " stroke="none" fill="#b2560f" fill-rule="evenodd"></path><path id="path3" d="M198.999 75.198 C 199.134 75.417,199.847 75.552,200.583 75.498 C 202.325 75.371,201.973 74.800,200.153 74.800 C 199.326 74.800,198.853 74.963,198.999 75.198 M159.496 121.772 C 158.669 122.067,157.769 122.489,157.496 122.709 C 157.223 122.930,154.120 124.679,150.600 126.597 C 147.080 128.514,142.490 131.118,140.400 132.382 C 138.310 133.646,134.170 135.993,131.200 137.597 C 116.700 145.428,114.603 147.145,113.063 152.441 C 112.282 155.128,112.092 242.099,112.858 246.600 C 113.512 250.447,117.585 256.000,119.753 256.000 C 119.907 256.000,122.543 257.443,125.611 259.206 C 128.679 260.970,132.767 263.240,134.695 264.250 C 136.623 265.261,138.484 266.338,138.831 266.644 C 139.179 266.950,139.615 267.200,139.800 267.200 C 139.985 267.200,140.426 267.462,140.780 267.782 C 141.133 268.101,142.587 268.970,144.011 269.712 C 148.503 272.054,152.944 274.494,154.576 275.517 C 156.537 276.748,160.842 278.799,161.463 278.800 C 161.770 278.800,161.936 277.782,161.957 275.780 C 161.990 272.508,161.414 271.931,161.254 275.077 C 161.097 278.134,160.122 278.164,155.380 275.257 C 154.291 274.590,152.334 273.481,151.032 272.793 C 149.730 272.106,147.282 270.746,145.593 269.771 C 143.903 268.797,142.413 268.000,142.281 268.000 C 142.148 268.000,141.266 267.485,140.320 266.855 C 139.374 266.225,134.280 263.241,129.000 260.225 C 118.085 253.989,116.203 252.640,114.800 250.048 L 113.800 248.200 113.800 200.200 L 113.800 152.200 114.918 150.207 C 115.533 149.110,116.433 147.790,116.918 147.273 C 117.780 146.355,128.234 139.933,129.807 139.355 C 130.243 139.195,131.500 138.502,132.600 137.814 C 133.700 137.127,135.590 136.054,136.800 135.429 C 138.010 134.805,139.752 133.778,140.672 133.147 C 141.592 132.516,142.428 132.000,142.531 132.000 C 142.634 132.000,143.918 131.271,145.383 130.381 C 146.849 129.490,148.443 128.606,148.924 128.417 C 149.406 128.227,152.023 126.808,154.741 125.264 C 161.289 121.543,161.114 121.362,161.256 132.004 C 161.370 140.650,161.922 139.012,161.964 129.900 C 162.007 120.372,162.145 120.826,159.496 121.772 M238.056 140.154 C 238.066 152.711,238.209 159.200,238.476 159.200 C 238.724 159.200,238.845 157.851,238.790 155.700 C 238.457 142.813,238.825 122.765,239.400 122.545 C 239.740 122.414,242.461 123.696,245.700 125.512 C 248.835 127.271,252.390 129.250,253.600 129.909 C 254.810 130.569,256.880 131.754,258.200 132.543 C 259.520 133.332,261.050 134.199,261.600 134.471 C 262.150 134.743,263.320 135.439,264.200 136.018 C 265.080 136.596,267.094 137.723,268.675 138.522 C 272.182 140.293,280.449 145.157,282.495 146.653 C 284.675 148.247,286.006 150.499,286.448 153.341 C 287.064 157.307,286.729 247.910,286.092 249.346 C 285.495 250.696,281.020 255.076,279.864 255.443 C 279.424 255.583,278.059 256.342,276.832 257.129 C 275.604 257.917,273.520 259.143,272.200 259.854 C 267.971 262.130,263.765 264.508,257.264 268.300 C 253.774 270.335,250.821 272.000,250.701 272.000 C 250.580 272.000,249.290 272.724,247.834 273.609 C 241.752 277.303,238.800 278.469,238.800 277.176 C 238.800 276.943,238.620 276.864,238.400 277.000 C 238.180 277.136,238.000 277.611,238.000 278.055 C 238.000 279.554,241.403 278.267,247.598 274.426 C 249.249 273.402,251.799 271.980,253.264 271.266 C 254.730 270.552,256.147 269.705,256.413 269.384 C 256.680 269.063,257.066 268.800,257.271 268.800 C 257.477 268.800,259.388 267.765,261.519 266.500 C 263.649 265.235,265.710 264.071,266.097 263.913 C 266.485 263.754,268.494 262.629,270.561 261.413 C 272.629 260.196,274.425 259.200,274.553 259.200 C 274.680 259.200,275.774 258.567,276.983 257.794 C 278.192 257.020,279.591 256.228,280.091 256.034 C 281.951 255.312,285.914 251.252,286.669 249.294 C 287.733 246.536,287.813 153.093,286.753 150.800 C 285.698 148.519,282.907 145.698,280.062 144.036 C 277.452 142.512,266.344 136.284,262.000 133.909 C 260.790 133.248,259.350 132.389,258.800 132.000 C 258.250 131.611,256.810 130.757,255.600 130.101 C 254.390 129.445,252.320 128.323,251.000 127.607 C 249.680 126.891,246.758 125.243,244.506 123.944 C 242.254 122.645,239.878 121.476,239.226 121.345 L 238.041 121.108 238.056 140.154 M161.714 146.200 C 161.717 147.300,161.795 147.703,161.887 147.095 C 161.979 146.486,161.977 145.586,161.882 145.095 C 161.787 144.603,161.711 145.100,161.714 146.200 M311.115 151.200 C 311.212 151.860,311.360 152.400,311.445 152.400 C 311.530 152.400,311.600 151.860,311.600 151.200 C 311.600 150.540,311.451 150.000,311.269 150.000 C 311.087 150.000,311.018 150.540,311.115 151.200 M162.949 164.400 C 163.087 164.730,163.311 165.315,163.446 165.700 C 163.582 166.085,163.852 166.400,164.047 166.400 C 164.662 166.400,164.430 165.598,163.550 164.683 C 163.082 164.197,162.812 164.070,162.949 164.400 M233.802 169.198 C 233.403 169.639,233.207 170.000,233.367 170.000 C 233.788 170.000,234.928 168.795,234.712 168.579 C 234.611 168.478,234.202 168.756,233.802 169.198 M178.189 174.418 C 178.028 174.679,178.315 174.785,178.950 174.700 C 180.366 174.511,180.760 174.000,179.490 174.000 C 178.917 174.000,178.331 174.188,178.189 174.418 M186.237 174.340 C 186.122 174.526,186.599 174.695,187.298 174.715 C 188.221 174.741,188.409 174.650,187.984 174.382 C 187.249 173.917,186.510 173.899,186.237 174.340 M198.800 174.400 C 198.800 174.620,199.340 174.800,200.000 174.800 C 200.660 174.800,201.200 174.620,201.200 174.400 C 201.200 174.180,200.660 174.000,200.000 174.000 C 199.340 174.000,198.800 174.180,198.800 174.400 M201.814 174.378 C 201.599 174.726,207.157 174.501,207.567 174.145 C 207.658 174.065,206.454 174.000,204.890 174.000 C 203.327 174.000,201.942 174.170,201.814 174.378 M192.713 174.695 C 193.876 174.776,195.676 174.776,196.713 174.693 C 197.751 174.611,196.800 174.545,194.600 174.546 C 192.400 174.547,191.551 174.614,192.713 174.695 M180.252 225.516 C 180.144 225.690,180.671 225.849,181.423 225.869 C 182.174 225.889,182.691 225.747,182.571 225.553 C 182.300 225.114,180.517 225.086,180.252 225.516 M187.200 225.600 C 187.986 226.108,189.200 226.108,189.200 225.600 C 189.200 225.380,188.615 225.203,187.900 225.206 C 186.914 225.211,186.745 225.306,187.200 225.600 M191.297 225.430 C 191.681 225.814,198.677 225.924,199.258 225.556 C 199.579 225.352,198.022 225.210,195.433 225.206 C 193.032 225.203,191.170 225.304,191.297 225.430 M200.700 225.482 C 201.195 225.578,202.005 225.578,202.500 225.482 C 202.995 225.387,202.590 225.309,201.600 225.309 C 200.610 225.309,200.205 225.387,200.700 225.482 M203.600 225.600 C 203.600 225.820,204.320 226.000,205.200 226.000 C 206.080 226.000,206.800 225.820,206.800 225.600 C 206.800 225.380,206.080 225.200,205.200 225.200 C 204.320 225.200,203.600 225.380,203.600 225.600 M208.400 225.614 C 208.400 225.994,215.514 225.742,215.967 225.346 C 216.058 225.266,214.393 225.200,212.267 225.200 C 209.866 225.200,208.400 225.357,208.400 225.614 M216.687 225.647 C 217.006 225.966,217.576 225.978,218.667 225.689 L 220.200 225.283 218.220 225.241 C 216.760 225.211,216.358 225.318,216.687 225.647 M169.000 228.400 C 168.281 229.195,168.285 229.196,169.538 228.571 C 170.897 227.893,171.116 227.600,170.262 227.600 C 169.966 227.600,169.398 227.960,169.000 228.400 M162.349 236.100 C 162.114 236.560,162.180 237.936,162.430 237.782 C 162.605 237.673,162.722 237.228,162.689 236.792 C 162.636 236.089,162.498 235.808,162.349 236.100 M237.289 236.971 C 237.334 237.505,237.512 237.855,237.685 237.748 C 238.140 237.466,238.073 236.000,237.604 236.000 C 237.387 236.000,237.245 236.437,237.289 236.971 M161.255 249.200 C 161.191 252.720,161.296 255.600,161.489 255.600 C 161.681 255.600,161.830 252.720,161.819 249.200 C 161.794 240.917,161.406 240.917,161.255 249.200 M238.235 245.500 C 238.610 247.576,238.800 247.632,238.800 245.667 C 238.800 244.750,238.612 244.000,238.382 244.000 C 238.117 244.000,238.063 244.550,238.235 245.500 M238.035 250.900 C 238.101 257.109,238.662 258.755,238.718 252.900 C 238.747 249.748,238.612 247.600,238.384 247.600 C 238.167 247.600,238.015 249.035,238.035 250.900 M161.509 258.900 C 161.139 260.768,161.132 268.889,161.500 268.662 C 161.836 268.454,162.154 258.000,161.824 258.000 C 161.749 258.000,161.607 258.405,161.509 258.900 M238.285 263.300 C 237.942 271.273,237.983 276.698,238.380 275.800 C 238.703 275.070,238.943 258.400,238.631 258.400 C 238.557 258.400,238.401 260.605,238.285 263.300 M161.510 269.700 C 161.413 269.975,161.466 270.650,161.627 271.200 C 161.882 272.070,161.925 272.005,161.960 270.700 C 162.001 269.177,161.828 268.794,161.510 269.700 " stroke="none" fill="#636e4e" fill-rule="evenodd"></path><path id="path4" d="M194.200 76.000 C 194.047 76.248,194.796 76.400,196.176 76.400 C 197.399 76.400,198.400 76.220,198.400 76.000 C 198.400 75.780,197.511 75.600,196.424 75.600 C 195.337 75.600,194.336 75.780,194.200 76.000 M203.800 76.000 C 203.936 76.220,204.487 76.400,205.024 76.400 C 205.561 76.400,206.000 76.220,206.000 76.000 C 206.000 75.780,205.449 75.600,204.776 75.600 C 204.063 75.600,203.656 75.767,203.800 76.000 M190.000 77.600 C 190.000 77.820,190.270 78.000,190.600 78.000 C 190.930 78.000,191.200 77.820,191.200 77.600 C 191.200 77.380,190.930 77.200,190.600 77.200 C 190.270 77.200,190.000 77.380,190.000 77.600 M208.999 77.599 C 209.136 77.819,209.627 78.000,210.090 78.000 C 211.103 78.000,210.714 77.497,209.565 77.322 C 209.099 77.251,208.857 77.369,208.999 77.599 M211.000 78.400 C 210.864 78.620,211.134 78.800,211.600 78.800 C 212.066 78.800,212.336 78.620,212.200 78.400 C 212.064 78.180,211.794 78.000,211.600 78.000 C 211.406 78.000,211.136 78.180,211.000 78.400 M212.600 79.200 C 212.464 79.420,212.734 79.600,213.200 79.600 C 213.666 79.600,213.936 79.420,213.800 79.200 C 213.664 78.980,213.394 78.800,213.200 78.800 C 213.006 78.800,212.736 78.980,212.600 79.200 M184.191 80.409 C 183.783 80.861,183.674 81.200,183.938 81.200 C 184.192 81.200,184.400 81.033,184.400 80.829 C 184.400 80.625,184.715 80.396,185.100 80.320 C 185.548 80.231,185.639 80.080,185.353 79.900 C 185.108 79.745,184.585 79.975,184.191 80.409 M227.200 87.094 C 227.200 87.375,228.508 88.371,228.900 88.387 C 229.564 88.415,229.133 87.772,228.197 87.338 C 227.649 87.083,227.200 86.973,227.200 87.094 M168.940 89.267 C 168.543 89.705,168.462 90.000,168.738 90.000 C 168.992 90.000,169.200 89.820,169.200 89.600 C 169.200 89.380,169.560 89.200,170.000 89.200 C 170.440 89.200,170.800 89.050,170.800 88.867 C 170.800 88.264,169.617 88.519,168.940 89.267 M232.400 90.332 C 232.400 90.515,232.895 90.920,233.500 91.232 C 234.105 91.544,234.712 91.952,234.848 92.139 C 234.984 92.326,235.434 92.399,235.848 92.302 C 236.471 92.156,236.394 92.035,235.400 91.598 C 234.740 91.308,234.060 91.102,233.889 91.139 C 233.718 91.177,233.473 90.936,233.346 90.604 C 233.102 89.967,232.400 89.766,232.400 90.332 M165.000 91.467 C 164.297 92.030,164.289 92.077,164.933 91.854 C 165.336 91.714,165.831 91.600,166.033 91.600 C 166.235 91.600,166.400 91.420,166.400 91.200 C 166.400 90.633,165.927 90.724,165.000 91.467 M242.800 95.767 C 242.800 96.188,244.005 97.328,244.221 97.112 C 244.322 97.011,244.044 96.602,243.602 96.202 C 243.161 95.803,242.800 95.607,242.800 95.767 M248.856 99.566 C 249.375 99.987,249.877 100.255,249.971 100.161 C 250.176 99.957,248.744 98.831,248.256 98.813 C 248.066 98.806,248.336 99.145,248.856 99.566 M149.029 100.229 C 148.605 100.538,148.336 100.869,148.430 100.963 C 148.524 101.057,148.948 100.881,149.371 100.571 C 149.795 100.262,150.064 99.931,149.970 99.837 C 149.876 99.743,149.452 99.919,149.029 100.229 M198.583 100.827 C 198.457 101.032,198.993 101.200,199.776 101.200 C 200.559 101.200,201.200 101.047,201.200 100.861 C 201.200 100.395,198.869 100.364,198.583 100.827 M193.619 102.380 C 193.300 102.582,192.914 102.671,192.763 102.577 C 192.611 102.483,192.208 102.834,191.866 103.355 C 191.256 104.286,191.263 104.295,192.219 103.852 C 192.755 103.603,193.195 103.265,193.197 103.100 C 193.199 102.935,193.459 102.800,193.776 102.800 C 194.093 102.800,194.464 102.620,194.600 102.400 C 194.908 101.902,194.391 101.891,193.619 102.380 M189.200 104.800 C 189.200 105.020,188.804 105.200,188.320 105.200 C 187.724 105.200,187.571 105.331,187.846 105.606 C 188.121 105.881,188.664 105.807,189.526 105.377 C 191.001 104.641,191.118 104.400,190.000 104.400 C 189.560 104.400,189.200 104.580,189.200 104.800 M183.600 108.000 C 183.600 108.220,183.330 108.400,183.000 108.400 C 182.670 108.400,182.400 108.580,182.400 108.800 C 182.400 109.446,183.139 109.261,184.000 108.400 C 184.622 107.778,184.667 107.600,184.200 107.600 C 183.870 107.600,183.600 107.780,183.600 108.000 M216.191 108.391 C 216.585 108.825,217.108 109.055,217.353 108.900 C 217.639 108.720,217.548 108.569,217.100 108.480 C 216.715 108.404,216.400 108.175,216.400 107.971 C 216.400 107.767,216.192 107.600,215.938 107.600 C 215.674 107.600,215.783 107.939,216.191 108.391 M178.900 110.544 C 178.405 110.789,178.000 111.127,178.000 111.295 C 178.000 111.463,177.730 111.600,177.400 111.600 C 177.070 111.600,176.800 111.780,176.800 112.000 C 176.800 112.590,177.055 112.507,178.809 111.347 C 180.891 109.969,180.940 109.533,178.900 110.544 M126.602 113.198 C 126.203 113.639,126.007 114.000,126.167 114.000 C 126.588 114.000,127.728 112.795,127.512 112.579 C 127.411 112.478,127.002 112.756,126.602 113.198 M272.400 112.700 C 272.400 112.869,272.760 113.232,273.200 113.507 C 273.640 113.782,274.000 113.869,274.000 113.700 C 274.000 113.531,273.640 113.168,273.200 112.893 C 272.760 112.618,272.400 112.531,272.400 112.700 M174.000 113.600 C 174.000 113.820,173.730 114.000,173.400 114.000 C 173.070 114.000,172.800 114.180,172.800 114.400 C 172.800 115.041,173.418 114.864,174.200 114.000 C 174.611 113.546,174.724 113.200,174.462 113.200 C 174.208 113.200,174.000 113.380,174.000 113.600 M229.200 116.000 C 229.200 116.220,229.470 116.400,229.800 116.400 C 230.130 116.400,230.400 116.220,230.400 116.000 C 230.400 115.780,230.130 115.600,229.800 115.600 C 229.470 115.600,229.200 115.780,229.200 116.000 M118.100 117.744 C 117.605 117.989,117.200 118.327,117.200 118.495 C 117.200 119.048,117.864 118.813,118.600 118.000 C 119.401 117.115,119.386 117.107,118.100 117.744 M232.400 117.504 C 232.400 117.671,232.760 118.032,233.200 118.307 C 234.076 118.854,234.285 118.445,233.520 117.680 C 232.978 117.138,232.400 117.047,232.400 117.504 M235.000 119.200 C 235.136 119.420,235.424 119.600,235.640 119.600 C 235.857 119.600,236.396 119.938,236.840 120.351 C 237.284 120.765,238.252 121.201,238.992 121.321 C 239.732 121.441,242.196 122.612,244.469 123.922 C 246.741 125.233,249.635 126.866,250.900 127.553 C 252.165 128.239,254.235 129.361,255.500 130.047 C 256.765 130.733,258.250 131.611,258.800 132.000 C 259.350 132.389,260.790 133.248,262.000 133.909 C 266.344 136.284,277.452 142.512,280.062 144.036 C 282.907 145.698,285.698 148.519,286.753 150.800 C 287.813 153.093,287.733 246.536,286.669 249.294 C 285.914 251.252,281.951 255.312,280.091 256.034 C 279.591 256.228,278.192 257.020,276.983 257.794 C 275.774 258.567,274.680 259.200,274.553 259.200 C 274.425 259.200,272.629 260.196,270.561 261.413 C 268.494 262.629,266.485 263.754,266.097 263.913 C 265.710 264.071,263.649 265.235,261.519 266.500 C 259.388 267.765,257.477 268.800,257.271 268.800 C 257.066 268.800,256.680 269.063,256.413 269.384 C 256.147 269.705,254.730 270.552,253.264 271.266 C 251.799 271.980,249.249 273.402,247.598 274.426 C 243.305 277.088,240.701 278.342,238.858 278.637 C 237.973 278.779,237.153 279.146,237.035 279.453 C 236.917 279.761,236.321 280.218,235.710 280.469 C 234.774 280.854,234.718 280.954,235.352 281.102 C 235.766 281.199,236.226 281.082,236.375 280.841 C 236.524 280.600,237.625 280.115,238.823 279.763 C 240.020 279.412,241.630 278.737,242.400 278.265 C 243.170 277.792,244.298 277.134,244.908 276.803 C 245.517 276.471,247.448 275.345,249.198 274.300 C 250.949 273.255,252.525 272.400,252.700 272.400 C 252.875 272.400,253.954 271.784,255.098 271.031 C 256.241 270.277,257.559 269.540,258.026 269.392 C 258.493 269.244,259.629 268.613,260.551 267.991 C 262.112 266.938,266.421 264.456,269.912 262.600 C 280.986 256.712,285.415 253.479,287.233 249.955 L 288.139 248.200 288.170 200.200 L 288.200 152.200 287.311 150.400 C 285.286 146.297,280.737 143.007,267.635 136.169 C 266.186 135.413,264.730 134.629,264.400 134.426 C 255.649 129.059,238.969 119.970,238.142 120.119 C 237.631 120.211,237.071 119.976,236.754 119.536 C 236.214 118.788,234.548 118.468,235.000 119.200 M113.656 120.413 C 113.087 120.887,112.930 121.200,113.259 121.200 C 113.561 121.200,114.032 120.840,114.307 120.400 C 114.921 119.417,114.850 119.419,113.656 120.413 M158.356 121.518 C 157.170 122.133,152.690 124.591,148.400 126.981 C 144.110 129.371,139.936 131.656,139.125 132.060 C 138.314 132.464,137.543 132.969,137.411 133.182 C 137.279 133.395,134.523 134.959,131.286 136.658 C 128.049 138.356,124.567 140.298,123.549 140.973 C 122.531 141.648,120.351 143.034,118.705 144.053 C 115.273 146.178,113.923 147.754,112.706 151.058 L 111.844 153.400 111.845 200.416 L 111.846 247.433 113.079 250.066 C 114.552 253.216,116.070 254.674,120.483 257.182 C 122.307 258.220,125.690 260.144,128.000 261.459 C 130.310 262.774,133.190 264.353,134.400 264.968 C 135.610 265.582,137.500 266.672,138.600 267.390 C 139.700 268.108,142.220 269.555,144.200 270.606 C 146.180 271.657,149.600 273.548,151.800 274.807 C 159.457 279.192,162.800 280.527,162.800 279.200 C 162.800 278.980,162.395 278.800,161.900 278.800 C 160.911 278.799,157.048 277.068,154.576 275.517 C 152.944 274.494,148.503 272.054,144.011 269.712 C 142.587 268.970,141.133 268.101,140.780 267.782 C 140.426 267.462,139.985 267.200,139.800 267.200 C 139.615 267.200,139.179 266.950,138.831 266.644 C 138.484 266.338,136.623 265.261,134.695 264.250 C 132.767 263.240,128.679 260.970,125.611 259.206 C 122.543 257.443,119.907 256.000,119.753 256.000 C 117.585 256.000,113.512 250.447,112.858 246.600 C 112.092 242.099,112.282 155.128,113.063 152.441 C 114.603 147.144,116.713 145.418,131.200 137.599 C 134.170 135.996,138.130 133.754,140.000 132.616 C 141.870 131.477,145.650 129.319,148.400 127.819 C 151.150 126.319,154.750 124.324,156.400 123.385 C 158.050 122.447,159.985 121.556,160.700 121.407 C 161.415 121.258,162.000 120.971,162.000 120.768 C 162.000 120.089,160.530 120.391,158.356 121.518 M108.056 123.613 C 107.536 124.046,107.319 124.400,107.572 124.400 C 107.826 124.400,108.420 124.040,108.892 123.600 C 109.999 122.569,109.296 122.580,108.056 123.613 M97.829 129.829 C 97.405 130.138,97.136 130.469,97.230 130.563 C 97.324 130.657,97.748 130.481,98.171 130.171 C 98.595 129.862,98.864 129.531,98.770 129.437 C 98.676 129.343,98.252 129.519,97.829 129.829 M302.800 131.026 C 302.800 131.150,303.700 132.181,304.800 133.316 C 305.900 134.451,306.800 135.188,306.800 134.954 C 306.800 134.719,306.008 133.689,305.040 132.664 C 303.391 130.919,302.800 130.486,302.800 131.026 M94.400 133.235 C 93.850 133.895,93.332 134.652,93.249 134.918 C 93.166 135.183,92.730 135.804,92.281 136.298 C 91.831 136.793,91.586 137.319,91.736 137.469 C 92.028 137.761,92.830 136.823,93.678 135.200 C 93.965 134.650,94.605 133.787,95.100 133.282 C 96.044 132.319,96.200 131.989,95.700 132.017 C 95.535 132.026,94.950 132.574,94.400 133.235 M308.400 138.315 C 308.400 138.733,309.592 141.200,309.794 141.200 C 310.084 141.200,309.740 140.051,309.286 139.504 C 309.022 139.186,308.907 138.826,309.030 138.703 C 309.153 138.581,309.061 138.361,308.827 138.216 C 308.592 138.071,308.400 138.116,308.400 138.315 M310.000 143.133 C 310.000 143.610,310.164 144.000,310.365 144.000 C 310.771 144.000,310.711 142.977,310.278 142.545 C 310.125 142.392,310.000 142.657,310.000 143.133 M88.652 147.700 C 88.237 149.248,88.378 190.546,88.800 191.200 C 89.053 191.591,89.190 183.974,89.194 169.300 C 89.197 156.925,89.131 146.800,89.047 146.800 C 88.962 146.800,88.785 147.205,88.652 147.700 M310.893 148.800 C 310.893 149.570,310.975 149.885,311.076 149.500 C 311.176 149.115,311.176 148.485,311.076 148.100 C 310.975 147.715,310.893 148.030,310.893 148.800 M88.702 198.700 C 88.427 207.034,88.600 236.333,88.925 236.659 C 89.057 236.790,89.163 226.796,89.160 214.449 C 89.158 202.102,89.103 192.000,89.039 192.000 C 88.975 192.000,88.823 195.015,88.702 198.700 M88.734 243.500 C 88.659 246.085,88.713 248.830,88.853 249.600 C 88.993 250.370,89.129 248.255,89.154 244.900 C 89.208 237.699,88.927 236.763,88.734 243.500 M90.108 258.772 C 90.140 259.197,90.309 259.456,90.483 259.349 C 90.927 259.075,90.880 258.000,90.425 258.000 C 90.219 258.000,90.076 258.348,90.108 258.772 M309.200 258.800 C 309.200 259.240,309.380 259.600,309.600 259.600 C 309.820 259.600,310.000 259.240,310.000 258.800 C 310.000 258.360,309.820 258.000,309.600 258.000 C 309.380 258.000,309.200 258.360,309.200 258.800 M308.400 261.167 C 308.400 261.588,308.199 262.000,307.954 262.082 C 307.709 262.164,307.580 262.584,307.667 263.015 C 307.798 263.667,307.941 263.570,308.512 262.439 C 309.299 260.880,309.367 260.400,308.800 260.400 C 308.580 260.400,308.400 260.745,308.400 261.167 M305.652 265.827 C 305.045 266.458,304.908 266.800,305.262 266.800 C 305.778 266.800,307.007 265.274,306.722 264.988 C 306.648 264.915,306.167 265.293,305.652 265.827 M301.185 270.384 C 300.423 271.035,299.991 271.575,300.225 271.584 C 300.459 271.593,301.168 271.060,301.800 270.400 C 303.268 268.867,302.968 268.859,301.185 270.384 M163.873 280.645 C 163.990 280.950,164.336 281.200,164.643 281.200 C 165.474 281.200,165.316 280.524,164.430 280.292 C 163.890 280.151,163.723 280.256,163.873 280.645 M232.779 282.139 C 232.222 282.655,231.504 283.181,231.183 283.307 C 230.683 283.504,230.685 283.540,231.200 283.556 C 231.858 283.576,232.700 282.983,233.549 281.900 C 234.315 280.923,233.978 281.028,232.779 282.139 M278.500 283.434 C 277.154 284.022,276.833 284.407,277.700 284.391 C 277.975 284.386,278.650 284.030,279.200 283.600 C 280.367 282.687,280.263 282.663,278.500 283.434 M169.600 284.000 C 169.600 284.220,169.870 284.400,170.200 284.400 C 170.530 284.400,170.800 284.220,170.800 284.000 C 170.800 283.780,170.530 283.600,170.200 283.600 C 169.870 283.600,169.600 283.780,169.600 284.000 M229.200 284.000 C 229.200 284.220,229.470 284.400,229.800 284.400 C 230.130 284.400,230.400 284.220,230.400 284.000 C 230.400 283.780,230.130 283.600,229.800 283.600 C 229.470 283.600,229.200 283.780,229.200 284.000 M171.200 284.656 C 171.200 285.066,172.547 285.973,173.175 285.987 C 173.577 285.996,173.492 285.758,172.892 285.200 C 172.053 284.419,171.200 284.144,171.200 284.656 M225.829 285.809 C 225.405 286.129,225.205 286.529,225.384 286.696 C 225.563 286.863,225.790 286.775,225.888 286.500 C 225.986 286.225,226.322 286.000,226.633 286.000 C 226.945 286.000,227.200 285.820,227.200 285.600 C 227.200 285.049,226.741 285.119,225.829 285.809 M174.000 286.332 C 174.000 286.515,174.495 286.920,175.100 287.232 C 175.705 287.545,176.549 288.115,176.975 288.500 C 177.827 289.269,178.800 289.429,178.800 288.800 C 178.800 288.580,178.564 288.400,178.275 288.400 C 177.987 288.400,177.364 288.040,176.892 287.600 C 176.420 287.160,175.756 286.800,175.417 286.800 C 175.078 286.800,174.800 286.620,174.800 286.400 C 174.800 286.180,174.620 286.000,174.400 286.000 C 174.180 286.000,174.000 286.150,174.000 286.332 M223.600 287.200 C 223.600 287.420,223.870 287.600,224.200 287.600 C 224.530 287.600,224.800 287.420,224.800 287.200 C 224.800 286.980,224.530 286.800,224.200 286.800 C 223.870 286.800,223.600 286.980,223.600 287.200 M221.829 288.229 C 221.405 288.538,221.136 288.869,221.230 288.963 C 221.324 289.057,221.748 288.881,222.171 288.571 C 222.595 288.262,222.864 287.931,222.770 287.837 C 222.676 287.743,222.252 287.919,221.829 288.229 M218.000 290.400 C 218.000 290.620,218.270 290.800,218.600 290.800 C 218.930 290.800,219.200 290.620,219.200 290.400 C 219.200 290.180,218.930 290.000,218.600 290.000 C 218.270 290.000,218.000 290.180,218.000 290.400 M266.100 290.488 C 265.605 290.727,265.200 291.079,265.200 291.270 C 265.200 291.462,265.650 291.324,266.200 290.963 C 267.667 290.002,267.616 289.757,266.100 290.488 M184.800 292.800 C 184.800 293.020,185.070 293.200,185.400 293.200 C 185.730 293.200,186.000 293.380,186.000 293.600 C 186.000 293.820,186.315 293.996,186.700 293.991 C 187.267 293.984,187.210 293.834,186.400 293.200 C 185.282 292.326,184.800 292.205,184.800 292.800 M141.200 295.175 C 141.200 295.381,141.548 295.524,141.972 295.492 C 142.397 295.460,142.656 295.291,142.549 295.117 C 142.275 294.673,141.200 294.720,141.200 295.175 M209.400 295.200 C 209.264 295.420,209.523 295.600,209.976 295.600 C 210.429 295.600,210.800 295.420,210.800 295.200 C 210.800 294.980,210.541 294.800,210.224 294.800 C 209.907 294.800,209.536 294.980,209.400 295.200 M257.600 295.200 C 257.600 295.420,257.870 295.600,258.200 295.600 C 258.530 295.600,258.800 295.420,258.800 295.200 C 258.800 294.980,258.530 294.800,258.200 294.800 C 257.870 294.800,257.600 294.980,257.600 295.200 M192.000 296.656 C 192.000 296.797,192.315 297.151,192.700 297.443 C 193.543 298.083,194.959 298.181,194.583 297.573 C 194.438 297.338,194.067 297.242,193.760 297.360 C 193.437 297.484,193.200 297.326,193.200 296.987 C 193.200 296.664,192.930 296.400,192.600 296.400 C 192.270 296.400,192.000 296.515,192.000 296.656 M203.600 298.400 C 203.600 298.620,203.870 298.800,204.200 298.800 C 204.530 298.800,204.800 298.620,204.800 298.400 C 204.800 298.180,204.530 298.000,204.200 298.000 C 203.870 298.000,203.600 298.180,203.600 298.400 M197.000 299.200 C 197.136 299.420,197.607 299.600,198.047 299.600 C 198.487 299.600,198.736 299.420,198.600 299.200 C 198.464 298.980,197.993 298.800,197.553 298.800 C 197.113 298.800,196.864 298.980,197.000 299.200 M200.200 299.200 C 200.057 299.431,200.428 299.597,201.076 299.594 C 201.949 299.589,202.066 299.501,201.600 299.200 C 200.831 298.703,200.507 298.703,200.200 299.200 M164.800 307.889 C 164.800 308.392,165.943 309.390,166.212 309.121 C 166.318 309.015,166.044 308.602,165.602 308.202 C 165.161 307.803,164.800 307.662,164.800 307.889 M230.465 310.594 C 229.950 310.877,229.701 311.215,229.911 311.345 C 230.121 311.475,230.615 311.225,231.009 310.791 C 231.820 309.894,231.769 309.875,230.465 310.594 M189.400 322.400 C 189.536 322.620,189.917 322.800,190.247 322.800 C 190.577 322.800,190.736 322.620,190.600 322.400 C 190.464 322.180,190.083 322.000,189.753 322.000 C 189.423 322.000,189.264 322.180,189.400 322.400 M208.800 322.365 C 208.800 322.771,209.823 322.711,210.255 322.278 C 210.408 322.125,210.143 322.000,209.667 322.000 C 209.190 322.000,208.800 322.164,208.800 322.365 M193.400 324.000 C 193.536 324.220,193.997 324.400,194.424 324.400 C 194.851 324.400,195.200 324.220,195.200 324.000 C 195.200 323.780,194.739 323.600,194.176 323.600 C 193.596 323.600,193.260 323.773,193.400 324.000 M203.600 324.000 C 203.600 324.220,204.219 324.400,204.976 324.400 C 205.733 324.400,206.464 324.220,206.600 324.000 C 206.749 323.758,206.204 323.600,205.224 323.600 C 204.331 323.600,203.600 323.780,203.600 324.000 " stroke="none" fill="#567664" fill-rule="evenodd"></path></g></svg>